<?xml version="1.0" encoding="UTF-8" standalone="no"?><!DOCTYPE svg PUBLIC "-//W3C//DTD SVG 1.1//EN" "http://www.w3.org/Graphics/SVG/1.1/DTD/svg11.dtd"><svg width="100%" height="100%" viewBox="0 0 3000 3000" version="1.1" xmlns="http://www.w3.org/2000/svg" xmlns:xlink="http://www.w3.org/1999/xlink" xml:space="preserve" xmlns:serif="http://www.serif.com/" style="fill-rule:evenodd;clip-rule:evenodd;stroke-linejoin:round;stroke-miterlimit:2;"><rect id="LOGO_2_WHITE" x="0" y="0" width="3000" height="3000" style="fill:none;"/><path d="M694.336,2198.05l-58.594,-29.297l-58.594,-117.188l0,-556.64l-87.89,-87.891l29.297,-29.297l175.781,-87.89l58.594,58.594l117.187,58.593l-117.187,58.594l-0,527.344l29.297,58.593l29.296,29.297l58.594,29.297l-175.781,87.891Zm-351.563,-0l-175.781,-87.891l-29.297,0l29.297,-58.593l0,-527.344l-87.89,-0l29.296,-58.594l0,-58.594l58.594,0l0,-234.375l-29.297,-29.297l29.297,-29.297l351.563,-175.781l117.187,117.188l58.594,-58.594l58.594,58.594l117.187,58.593l-58.594,58.594l-117.187,58.594l-58.594,-0l-234.375,-117.188l-58.594,-58.593l0,351.562l87.891,0l-29.297,58.594l0,58.594l-58.594,-0l0,439.453l117.188,58.594l-0,3.662l25.635,25.634l3.662,0.001l-3.662,-0.001l-25.635,29.297l-29.297,29.297l-3.662,0l-25.635,29.297l-29.297,29.297l-3.662,0l-25.635,29.297Z" style="fill:#fff;fill-rule:nonzero;"/><path d="M1250.98,2198.05l-175.782,-87.891l-29.297,0l29.297,-58.593l0,-527.344l-87.89,-0l29.297,-58.594l-0,-58.594l58.593,0l0,-234.375l-29.297,-29.297l29.297,-29.297l351.563,-175.781l58.594,58.594l117.187,58.594l58.594,-0l-175.781,87.89l-117.188,0l-58.594,-29.297l-58.593,-58.593l-0,351.562l87.89,0l-29.297,58.594l0,58.594l-58.593,-0l-0,439.453l117.187,58.594l0,3.662l25.635,25.634l3.662,0.001l-3.662,-0.001l-25.635,29.297l-29.297,29.297l-3.662,0l-25.635,29.297l-29.297,29.297l-3.662,0l-25.634,29.297Z" style="fill:#fff;fill-rule:nonzero;"/><path d="M1866.21,2198.05l-29.297,-29.297l-117.187,-58.594l-87.891,0l29.297,-58.593l-0,-615.235l-58.594,0l-58.594,29.297l0,-117.188l58.594,-29.296l58.594,-0l-0,-146.485l-29.297,-29.297l29.297,-29.297l234.375,-117.187l-0,58.594l-58.594,58.593l0,205.079l58.594,-0l58.594,-29.297l-0,117.187l-58.594,29.297l-58.594,0l0,498.047l234.375,117.188l-117.187,58.593l-87.891,87.891Z" style="fill:#fff;fill-rule:nonzero;"/><path d="M2715.82,2520.31l0,-58.594l58.594,-117.188l0,-58.593l-87.891,-175.782l0,-58.593l58.594,-117.188l0,-468.75l-117.187,-117.188l-234.375,117.188l-0,439.453l117.187,58.594l0,3.662l25.635,25.635l3.662,-0l-3.662,-0l-25.635,29.297l-29.297,29.296l-3.662,0.001l-25.635,29.296l-29.296,29.297l-3.663,0l-25.634,29.297l-58.594,-58.594l-58.594,-29.296l-87.89,-0.001l29.296,-58.593l0,-937.5l-29.296,-29.297l29.296,-29.297l234.375,-117.188l0,58.594l-58.593,58.594l-0,410.156l351.562,-175.781l175.781,175.781l0,585.938l-58.593,-0l-58.594,29.297l-29.297,29.296l-29.297,58.594l29.297,58.594l7.324,18.311l21.973,10.986l29.297,29.297l29.297,58.593l-0,58.594l-29.297,58.594l-3.662,0l-25.635,29.297l-58.594,29.297l-29.297,58.593Z" style="fill:#fff;fill-rule:nonzero;"/></svg>