<?xml version="1.0" encoding="UTF-8" standalone="no"?><!DOCTYPE svg PUBLIC "-//W3C//DTD SVG 1.1//EN" "http://www.w3.org/Graphics/SVG/1.1/DTD/svg11.dtd"><svg width="100%" height="100%" viewBox="0 0 2842 1641" version="1.1" xmlns="http://www.w3.org/2000/svg" xmlns:xlink="http://www.w3.org/1999/xlink" xml:space="preserve" xmlns:serif="http://www.serif.com/" style="fill-rule:evenodd;clip-rule:evenodd;stroke-linejoin:round;stroke-miterlimit:2;"><rect id="LOGO_2_WHITE" x="-79.102" y="-879.687" width="3000" height="3000" style="fill:none;"/><path d="M615.234,1318.36l-58.593,-29.296l-58.594,-117.188l-0,-556.641l-87.891,-87.89l29.297,-29.297l175.781,-87.891l58.594,58.594l117.188,58.594l-117.188,58.594l0,527.343l29.297,58.594l29.297,29.297l58.594,29.297l-175.782,87.89Zm-351.562,0l-175.781,-87.89l-29.297,-0l29.297,-58.594l-0,-527.344l-87.891,0l29.297,-58.593l-0,-58.594l58.594,-0l-0,-234.375l-29.297,-29.297l29.297,-29.297l351.562,-175.781l117.188,117.187l58.593,-58.593l58.594,58.593l117.188,58.594l-58.594,58.594l-117.188,58.594l-58.593,-0l-234.375,-117.188l-58.594,-58.594l-0,351.563l87.89,-0l-29.296,58.594l-0,58.593l-58.594,0l-0,439.453l117.187,58.594l0,3.662l25.635,25.635l3.662,0l-3.662,0l-25.635,29.297l-29.297,29.297l-3.662,-0l-25.634,29.297l-29.297,29.297l-3.662,-0l-25.635,29.296Z" style="fill:#fff;fill-rule:nonzero;"/><path d="M1171.88,1318.36l-175.781,-87.89l-29.297,-0l29.297,-58.594l-0,-527.344l-87.891,0l29.297,-58.593l-0,-58.594l58.594,-0l-0,-234.375l-29.297,-29.297l29.297,-29.297l351.562,-175.781l58.594,58.594l117.187,58.593l58.594,0l-175.781,87.891l-117.188,-0l-58.593,-29.297l-58.594,-58.594l0,351.563l87.891,-0l-29.297,58.594l-0,58.593l-58.594,0l0,439.453l117.188,58.594l-0.001,3.662l25.635,25.635l3.662,0l-3.662,0l-25.635,29.297l-29.296,29.297l-3.662,-0l-25.635,29.297l-29.297,29.297l-3.662,-0l-25.635,29.296Z" style="fill:#fff;fill-rule:nonzero;"/><path d="M1787.11,1318.36l-29.296,-29.296l-117.188,-58.594l-87.891,-0l29.297,-58.594l0,-615.234l-58.593,-0l-58.594,29.297l-0,-117.188l58.594,-29.297l58.593,0l0,-146.484l-29.297,-29.297l29.297,-29.297l234.375,-117.187l0,58.593l-58.593,58.594l-0,205.078l58.593,0l58.594,-29.297l0,117.188l-58.594,29.297l-58.593,-0l-0,498.047l234.375,117.187l-117.188,58.594l-87.891,87.89Z" style="fill:#fff;fill-rule:nonzero;"/><path d="M2636.72,1640.62l-0,-58.594l58.593,-117.187l0.001,-58.594l-87.891,-175.781l-0,-58.594l58.594,-117.187l-0,-468.751l-117.188,-117.187l-234.375,117.188l0,439.453l117.188,58.593l-0,3.662l25.634,25.635l3.662,0l-3.662,0l-25.634,29.297l-29.297,29.297l-3.662,0l-25.635,29.297l-29.297,29.297l-3.662,-0l-25.635,29.297l-58.594,-58.594l-58.593,-29.297l-87.891,0l29.297,-58.594l-0,-937.5l-29.297,-29.297l29.297,-29.297l234.375,-117.187l-0,58.594l-58.594,58.593l0,410.157l351.563,-175.782l175.781,175.782l-0,585.937l-58.594,0l-58.594,29.297l-29.296,29.297l-29.297,58.594l29.296,58.593l7.325,18.311l21.972,10.986l29.297,29.297l29.297,58.594l0,58.594l-29.297,58.593l-3.662,0l-25.635,29.297l-58.593,29.297l-29.297,58.594Z" style="fill:#fff;fill-rule:nonzero;"/></svg>